<mxfile host="app.diagrams.net" modified="2023-05-17T09:19:03.560Z" agent="Mozilla/5.0 (Windows NT 10.0; Win64; x64) AppleWebKit/537.36 (KHTML, like Gecko) Chrome/113.0.0.0 Safari/537.36 Edg/113.0.1774.42" etag="7zmA6ubpO2SVOTo-yGZp" version="21.3.2" type="github">
  <diagram id="R2lEEEUBdFMjLlhIrx00" name="Page-1">
    <mxGraphModel dx="2421" dy="796" grid="1" gridSize="10" guides="1" tooltips="1" connect="1" arrows="1" fold="1" page="1" pageScale="1" pageWidth="850" pageHeight="1100" math="0" shadow="0" extFonts="Permanent Marker^https://fonts.googleapis.com/css?family=Permanent+Marker">
      <root>
        <mxCell id="0" />
        <mxCell id="1" parent="0" />
        <mxCell id="S7SiLh0995_sBBa2Cg7T-1" value="DataDictionary" style="rounded=1;arcSize=10;whiteSpace=wrap;html=1;align=center;" vertex="1" parent="1">
          <mxGeometry x="360" y="550" width="100" height="40" as="geometry" />
        </mxCell>
        <mxCell id="S7SiLh0995_sBBa2Cg7T-4" value="BookChapter" style="rounded=1;arcSize=10;whiteSpace=wrap;html=1;align=center;" vertex="1" parent="1">
          <mxGeometry x="720" y="220" width="100" height="40" as="geometry" />
        </mxCell>
        <mxCell id="S7SiLh0995_sBBa2Cg7T-5" value="Book" style="rounded=1;arcSize=10;whiteSpace=wrap;html=1;align=center;" vertex="1" parent="1">
          <mxGeometry x="360" y="200" width="100" height="40" as="geometry" />
        </mxCell>
        <mxCell id="S7SiLh0995_sBBa2Cg7T-6" value="BookAuthor" style="rounded=1;arcSize=10;whiteSpace=wrap;html=1;align=center;" vertex="1" parent="1">
          <mxGeometry x="20" y="220" width="100" height="40" as="geometry" />
        </mxCell>
        <mxCell id="S7SiLh0995_sBBa2Cg7T-12" value="UserBookShelf" style="shape=rhombus;double=1;perimeter=rhombusPerimeter;whiteSpace=wrap;html=1;align=center;" vertex="1" parent="1">
          <mxGeometry x="240" y="290" width="120" height="60" as="geometry" />
        </mxCell>
        <mxCell id="S7SiLh0995_sBBa2Cg7T-13" value="" style="endArrow=none;html=1;rounded=0;dashed=1;dashPattern=1 2;exitX=0.5;exitY=1;exitDx=0;exitDy=0;entryX=0;entryY=0.5;entryDx=0;entryDy=0;" edge="1" parent="1" source="S7SiLh0995_sBBa2Cg7T-12" target="S7SiLh0995_sBBa2Cg7T-3">
          <mxGeometry relative="1" as="geometry">
            <mxPoint x="340" y="410" as="sourcePoint" />
            <mxPoint x="500" y="410" as="targetPoint" />
          </mxGeometry>
        </mxCell>
        <mxCell id="S7SiLh0995_sBBa2Cg7T-14" value="1" style="resizable=0;html=1;whiteSpace=wrap;align=right;verticalAlign=bottom;" connectable="0" vertex="1" parent="S7SiLh0995_sBBa2Cg7T-13">
          <mxGeometry x="1" relative="1" as="geometry">
            <mxPoint x="-20" y="-10" as="offset" />
          </mxGeometry>
        </mxCell>
        <mxCell id="S7SiLh0995_sBBa2Cg7T-15" value="" style="endArrow=none;html=1;rounded=0;dashed=1;dashPattern=1 2;entryX=0;entryY=0.5;entryDx=0;entryDy=0;exitX=0.5;exitY=0;exitDx=0;exitDy=0;" edge="1" parent="1" source="S7SiLh0995_sBBa2Cg7T-12" target="S7SiLh0995_sBBa2Cg7T-5">
          <mxGeometry relative="1" as="geometry">
            <mxPoint x="180" y="270" as="sourcePoint" />
            <mxPoint x="340" y="270" as="targetPoint" />
          </mxGeometry>
        </mxCell>
        <mxCell id="S7SiLh0995_sBBa2Cg7T-16" value="N" style="resizable=0;html=1;whiteSpace=wrap;align=right;verticalAlign=bottom;" connectable="0" vertex="1" parent="S7SiLh0995_sBBa2Cg7T-15">
          <mxGeometry x="1" relative="1" as="geometry">
            <mxPoint x="-40" y="50" as="offset" />
          </mxGeometry>
        </mxCell>
        <mxCell id="S7SiLh0995_sBBa2Cg7T-17" value="UserLikeSee" style="shape=rhombus;double=1;perimeter=rhombusPerimeter;whiteSpace=wrap;html=1;align=center;" vertex="1" parent="1">
          <mxGeometry x="480" y="290" width="120" height="60" as="geometry" />
        </mxCell>
        <mxCell id="S7SiLh0995_sBBa2Cg7T-20" value="" style="endArrow=none;html=1;rounded=0;dashed=1;dashPattern=1 2;entryX=1;entryY=0.5;entryDx=0;entryDy=0;exitX=0.433;exitY=0.983;exitDx=0;exitDy=0;exitPerimeter=0;" edge="1" parent="1" source="S7SiLh0995_sBBa2Cg7T-17" target="S7SiLh0995_sBBa2Cg7T-3">
          <mxGeometry relative="1" as="geometry">
            <mxPoint x="340" y="410" as="sourcePoint" />
            <mxPoint x="500" y="410" as="targetPoint" />
          </mxGeometry>
        </mxCell>
        <mxCell id="S7SiLh0995_sBBa2Cg7T-21" value="1" style="resizable=0;html=1;whiteSpace=wrap;align=right;verticalAlign=bottom;" connectable="0" vertex="1" parent="S7SiLh0995_sBBa2Cg7T-20">
          <mxGeometry x="1" relative="1" as="geometry">
            <mxPoint x="30" y="-10" as="offset" />
          </mxGeometry>
        </mxCell>
        <mxCell id="S7SiLh0995_sBBa2Cg7T-22" value="" style="endArrow=none;html=1;rounded=0;dashed=1;dashPattern=1 2;entryX=1;entryY=0.5;entryDx=0;entryDy=0;exitX=0.5;exitY=0;exitDx=0;exitDy=0;" edge="1" parent="1" source="S7SiLh0995_sBBa2Cg7T-17" target="S7SiLh0995_sBBa2Cg7T-5">
          <mxGeometry relative="1" as="geometry">
            <mxPoint x="340" y="410" as="sourcePoint" />
            <mxPoint x="500" y="410" as="targetPoint" />
          </mxGeometry>
        </mxCell>
        <mxCell id="S7SiLh0995_sBBa2Cg7T-23" value="N" style="resizable=0;html=1;whiteSpace=wrap;align=right;verticalAlign=bottom;" connectable="0" vertex="1" parent="S7SiLh0995_sBBa2Cg7T-22">
          <mxGeometry x="1" relative="1" as="geometry">
            <mxPoint x="60" y="40" as="offset" />
          </mxGeometry>
        </mxCell>
        <mxCell id="S7SiLh0995_sBBa2Cg7T-24" value="write" style="shape=rhombus;double=1;perimeter=rhombusPerimeter;whiteSpace=wrap;html=1;align=center;" vertex="1" parent="1">
          <mxGeometry x="170" y="180" width="120" height="60" as="geometry" />
        </mxCell>
        <mxCell id="S7SiLh0995_sBBa2Cg7T-25" value="include" style="shape=rhombus;double=1;perimeter=rhombusPerimeter;whiteSpace=wrap;html=1;align=center;" vertex="1" parent="1">
          <mxGeometry x="540" y="180" width="120" height="60" as="geometry" />
        </mxCell>
        <mxCell id="S7SiLh0995_sBBa2Cg7T-28" value="" style="endArrow=none;html=1;rounded=0;dashed=1;dashPattern=1 2;entryX=0;entryY=0.5;entryDx=0;entryDy=0;exitX=1;exitY=0.5;exitDx=0;exitDy=0;" edge="1" parent="1" source="S7SiLh0995_sBBa2Cg7T-24" target="S7SiLh0995_sBBa2Cg7T-5">
          <mxGeometry relative="1" as="geometry">
            <mxPoint x="340" y="410" as="sourcePoint" />
            <mxPoint x="500" y="410" as="targetPoint" />
          </mxGeometry>
        </mxCell>
        <mxCell id="S7SiLh0995_sBBa2Cg7T-29" value="N" style="resizable=0;html=1;whiteSpace=wrap;align=right;verticalAlign=bottom;" connectable="0" vertex="1" parent="S7SiLh0995_sBBa2Cg7T-28">
          <mxGeometry x="1" relative="1" as="geometry">
            <mxPoint x="-40" y="-10" as="offset" />
          </mxGeometry>
        </mxCell>
        <mxCell id="S7SiLh0995_sBBa2Cg7T-30" value="" style="endArrow=none;html=1;rounded=0;dashed=1;dashPattern=1 2;entryX=1;entryY=0.5;entryDx=0;entryDy=0;exitX=0;exitY=0.5;exitDx=0;exitDy=0;" edge="1" parent="1" source="S7SiLh0995_sBBa2Cg7T-24" target="S7SiLh0995_sBBa2Cg7T-6">
          <mxGeometry relative="1" as="geometry">
            <mxPoint x="340" y="410" as="sourcePoint" />
            <mxPoint x="500" y="410" as="targetPoint" />
          </mxGeometry>
        </mxCell>
        <mxCell id="S7SiLh0995_sBBa2Cg7T-31" value="1" style="resizable=0;html=1;whiteSpace=wrap;align=right;verticalAlign=bottom;" connectable="0" vertex="1" parent="S7SiLh0995_sBBa2Cg7T-30">
          <mxGeometry x="1" relative="1" as="geometry">
            <mxPoint x="30" y="-20" as="offset" />
          </mxGeometry>
        </mxCell>
        <mxCell id="S7SiLh0995_sBBa2Cg7T-34" value="" style="endArrow=none;html=1;rounded=0;dashed=1;dashPattern=1 2;entryX=0;entryY=0.5;entryDx=0;entryDy=0;exitX=1;exitY=0.5;exitDx=0;exitDy=0;" edge="1" parent="1" source="S7SiLh0995_sBBa2Cg7T-25" target="S7SiLh0995_sBBa2Cg7T-4">
          <mxGeometry relative="1" as="geometry">
            <mxPoint x="340" y="410" as="sourcePoint" />
            <mxPoint x="470" y="450" as="targetPoint" />
          </mxGeometry>
        </mxCell>
        <mxCell id="S7SiLh0995_sBBa2Cg7T-35" value="N" style="resizable=0;html=1;whiteSpace=wrap;align=right;verticalAlign=bottom;" connectable="0" vertex="1" parent="S7SiLh0995_sBBa2Cg7T-34">
          <mxGeometry x="1" relative="1" as="geometry">
            <mxPoint x="-30" y="-20" as="offset" />
          </mxGeometry>
        </mxCell>
        <mxCell id="S7SiLh0995_sBBa2Cg7T-36" value="" style="endArrow=none;html=1;rounded=0;dashed=1;dashPattern=1 2;entryX=1;entryY=0.5;entryDx=0;entryDy=0;exitX=0;exitY=0.5;exitDx=0;exitDy=0;" edge="1" parent="1" source="S7SiLh0995_sBBa2Cg7T-25" target="S7SiLh0995_sBBa2Cg7T-5">
          <mxGeometry relative="1" as="geometry">
            <mxPoint x="340" y="410" as="sourcePoint" />
            <mxPoint x="500" y="410" as="targetPoint" />
          </mxGeometry>
        </mxCell>
        <mxCell id="S7SiLh0995_sBBa2Cg7T-37" value="1" style="resizable=0;html=1;whiteSpace=wrap;align=right;verticalAlign=bottom;" connectable="0" vertex="1" parent="S7SiLh0995_sBBa2Cg7T-36">
          <mxGeometry x="1" relative="1" as="geometry">
            <mxPoint x="50" y="-10" as="offset" />
          </mxGeometry>
        </mxCell>
        <mxCell id="S7SiLh0995_sBBa2Cg7T-38" value="dict_type" style="ellipse;whiteSpace=wrap;html=1;align=center;" vertex="1" parent="1">
          <mxGeometry x="220" y="590" width="100" height="40" as="geometry" />
        </mxCell>
        <mxCell id="S7SiLh0995_sBBa2Cg7T-39" value="&lt;font style=&quot;font-size: 18px;&quot;&gt;&lt;b&gt;........&amp;nbsp; ......&amp;nbsp; ................&lt;/b&gt;&lt;/font&gt;" style="text;whiteSpace=wrap;html=1;" vertex="1" parent="1">
          <mxGeometry x="560" y="720" width="560" height="80" as="geometry" />
        </mxCell>
        <mxCell id="S7SiLh0995_sBBa2Cg7T-41" value="id&lt;br&gt;" style="ellipse;whiteSpace=wrap;html=1;align=center;fontStyle=4;" vertex="1" parent="1">
          <mxGeometry x="360" y="490" width="100" height="40" as="geometry" />
        </mxCell>
        <mxCell id="S7SiLh0995_sBBa2Cg7T-42" value="dict_type_name" style="ellipse;whiteSpace=wrap;html=1;align=center;" vertex="1" parent="1">
          <mxGeometry x="360" y="610" width="100" height="40" as="geometry" />
        </mxCell>
        <mxCell id="S7SiLh0995_sBBa2Cg7T-43" value="code" style="ellipse;whiteSpace=wrap;html=1;align=center;" vertex="1" parent="1">
          <mxGeometry x="530" y="590" width="100" height="40" as="geometry" />
        </mxCell>
        <mxCell id="S7SiLh0995_sBBa2Cg7T-44" value="name" style="ellipse;whiteSpace=wrap;html=1;align=center;" vertex="1" parent="1">
          <mxGeometry x="220" y="540" width="100" height="40" as="geometry" />
        </mxCell>
        <mxCell id="S7SiLh0995_sBBa2Cg7T-45" value="sort_number" style="ellipse;whiteSpace=wrap;html=1;align=center;" vertex="1" parent="1">
          <mxGeometry x="520" y="540" width="100" height="40" as="geometry" />
        </mxCell>
        <mxCell id="S7SiLh0995_sBBa2Cg7T-51" value="" style="endArrow=none;html=1;rounded=0;exitX=0.6;exitY=-0.05;exitDx=0;exitDy=0;exitPerimeter=0;" edge="1" parent="1" source="S7SiLh0995_sBBa2Cg7T-3">
          <mxGeometry relative="1" as="geometry">
            <mxPoint x="700" y="400" as="sourcePoint" />
            <mxPoint x="400" y="400" as="targetPoint" />
          </mxGeometry>
        </mxCell>
        <mxCell id="S7SiLh0995_sBBa2Cg7T-53" value="" style="resizable=0;html=1;whiteSpace=wrap;align=right;verticalAlign=bottom;" connectable="0" vertex="1" parent="S7SiLh0995_sBBa2Cg7T-51">
          <mxGeometry x="1" relative="1" as="geometry" />
        </mxCell>
        <mxCell id="S7SiLh0995_sBBa2Cg7T-54" value="" style="endArrow=none;html=1;rounded=0;entryX=0;entryY=0.5;entryDx=0;entryDy=0;exitX=1;exitY=0.75;exitDx=0;exitDy=0;" edge="1" parent="1" source="S7SiLh0995_sBBa2Cg7T-1" target="S7SiLh0995_sBBa2Cg7T-43">
          <mxGeometry relative="1" as="geometry">
            <mxPoint x="350" y="420" as="sourcePoint" />
            <mxPoint x="510" y="420" as="targetPoint" />
          </mxGeometry>
        </mxCell>
        <mxCell id="S7SiLh0995_sBBa2Cg7T-55" value="" style="resizable=0;html=1;whiteSpace=wrap;align=left;verticalAlign=bottom;" connectable="0" vertex="1" parent="S7SiLh0995_sBBa2Cg7T-54">
          <mxGeometry x="-1" relative="1" as="geometry" />
        </mxCell>
        <mxCell id="S7SiLh0995_sBBa2Cg7T-56" value="" style="resizable=0;html=1;whiteSpace=wrap;align=right;verticalAlign=bottom;" connectable="0" vertex="1" parent="S7SiLh0995_sBBa2Cg7T-54">
          <mxGeometry x="1" relative="1" as="geometry" />
        </mxCell>
        <mxCell id="S7SiLh0995_sBBa2Cg7T-57" value="" style="endArrow=none;html=1;rounded=0;entryX=0;entryY=0.5;entryDx=0;entryDy=0;" edge="1" parent="1" target="S7SiLh0995_sBBa2Cg7T-1">
          <mxGeometry relative="1" as="geometry">
            <mxPoint x="320" y="560" as="sourcePoint" />
            <mxPoint x="520" y="430" as="targetPoint" />
          </mxGeometry>
        </mxCell>
        <mxCell id="S7SiLh0995_sBBa2Cg7T-58" value="" style="resizable=0;html=1;whiteSpace=wrap;align=left;verticalAlign=bottom;" connectable="0" vertex="1" parent="S7SiLh0995_sBBa2Cg7T-57">
          <mxGeometry x="-1" relative="1" as="geometry" />
        </mxCell>
        <mxCell id="S7SiLh0995_sBBa2Cg7T-59" value="" style="resizable=0;html=1;whiteSpace=wrap;align=right;verticalAlign=bottom;" connectable="0" vertex="1" parent="S7SiLh0995_sBBa2Cg7T-57">
          <mxGeometry x="1" relative="1" as="geometry" />
        </mxCell>
        <mxCell id="S7SiLh0995_sBBa2Cg7T-60" value="" style="endArrow=none;html=1;rounded=0;entryX=0.5;entryY=0;entryDx=0;entryDy=0;exitX=0.5;exitY=1;exitDx=0;exitDy=0;" edge="1" parent="1" source="S7SiLh0995_sBBa2Cg7T-41" target="S7SiLh0995_sBBa2Cg7T-1">
          <mxGeometry relative="1" as="geometry">
            <mxPoint x="370" y="440" as="sourcePoint" />
            <mxPoint x="530" y="440" as="targetPoint" />
          </mxGeometry>
        </mxCell>
        <mxCell id="S7SiLh0995_sBBa2Cg7T-61" value="" style="resizable=0;html=1;whiteSpace=wrap;align=left;verticalAlign=bottom;" connectable="0" vertex="1" parent="S7SiLh0995_sBBa2Cg7T-60">
          <mxGeometry x="-1" relative="1" as="geometry" />
        </mxCell>
        <mxCell id="S7SiLh0995_sBBa2Cg7T-62" value="" style="resizable=0;html=1;whiteSpace=wrap;align=right;verticalAlign=bottom;" connectable="0" vertex="1" parent="S7SiLh0995_sBBa2Cg7T-60">
          <mxGeometry x="1" relative="1" as="geometry" />
        </mxCell>
        <mxCell id="S7SiLh0995_sBBa2Cg7T-63" value="" style="endArrow=none;html=1;rounded=0;entryX=0;entryY=0.5;entryDx=0;entryDy=0;exitX=1;exitY=0.5;exitDx=0;exitDy=0;" edge="1" parent="1" source="S7SiLh0995_sBBa2Cg7T-1" target="S7SiLh0995_sBBa2Cg7T-45">
          <mxGeometry relative="1" as="geometry">
            <mxPoint x="380" y="450" as="sourcePoint" />
            <mxPoint x="540" y="450" as="targetPoint" />
          </mxGeometry>
        </mxCell>
        <mxCell id="S7SiLh0995_sBBa2Cg7T-64" value="" style="resizable=0;html=1;whiteSpace=wrap;align=left;verticalAlign=bottom;" connectable="0" vertex="1" parent="S7SiLh0995_sBBa2Cg7T-63">
          <mxGeometry x="-1" relative="1" as="geometry" />
        </mxCell>
        <mxCell id="S7SiLh0995_sBBa2Cg7T-65" value="" style="resizable=0;html=1;whiteSpace=wrap;align=right;verticalAlign=bottom;" connectable="0" vertex="1" parent="S7SiLh0995_sBBa2Cg7T-63">
          <mxGeometry x="1" relative="1" as="geometry" />
        </mxCell>
        <mxCell id="S7SiLh0995_sBBa2Cg7T-66" value="" style="endArrow=none;html=1;rounded=0;entryX=1;entryY=0.5;entryDx=0;entryDy=0;exitX=0;exitY=0.75;exitDx=0;exitDy=0;" edge="1" parent="1" source="S7SiLh0995_sBBa2Cg7T-1" target="S7SiLh0995_sBBa2Cg7T-38">
          <mxGeometry relative="1" as="geometry">
            <mxPoint x="390" y="460" as="sourcePoint" />
            <mxPoint x="550" y="460" as="targetPoint" />
          </mxGeometry>
        </mxCell>
        <mxCell id="S7SiLh0995_sBBa2Cg7T-67" value="" style="resizable=0;html=1;whiteSpace=wrap;align=left;verticalAlign=bottom;" connectable="0" vertex="1" parent="S7SiLh0995_sBBa2Cg7T-66">
          <mxGeometry x="-1" relative="1" as="geometry" />
        </mxCell>
        <mxCell id="S7SiLh0995_sBBa2Cg7T-68" value="" style="resizable=0;html=1;whiteSpace=wrap;align=right;verticalAlign=bottom;" connectable="0" vertex="1" parent="S7SiLh0995_sBBa2Cg7T-66">
          <mxGeometry x="1" relative="1" as="geometry" />
        </mxCell>
        <mxCell id="S7SiLh0995_sBBa2Cg7T-69" value="" style="endArrow=none;html=1;rounded=0;entryX=0.5;entryY=0;entryDx=0;entryDy=0;" edge="1" parent="1" target="S7SiLh0995_sBBa2Cg7T-42">
          <mxGeometry relative="1" as="geometry">
            <mxPoint x="410" y="590" as="sourcePoint" />
            <mxPoint x="560" y="470" as="targetPoint" />
          </mxGeometry>
        </mxCell>
        <mxCell id="S7SiLh0995_sBBa2Cg7T-70" value="" style="resizable=0;html=1;whiteSpace=wrap;align=left;verticalAlign=bottom;" connectable="0" vertex="1" parent="S7SiLh0995_sBBa2Cg7T-69">
          <mxGeometry x="-1" relative="1" as="geometry" />
        </mxCell>
        <mxCell id="S7SiLh0995_sBBa2Cg7T-71" value="" style="resizable=0;html=1;whiteSpace=wrap;align=right;verticalAlign=bottom;" connectable="0" vertex="1" parent="S7SiLh0995_sBBa2Cg7T-69">
          <mxGeometry x="1" relative="1" as="geometry" />
        </mxCell>
        <mxCell id="S7SiLh0995_sBBa2Cg7T-72" value="id&lt;br&gt;" style="ellipse;whiteSpace=wrap;html=1;align=center;fontStyle=4;" vertex="1" parent="1">
          <mxGeometry x="230" y="430" width="100" height="40" as="geometry" />
        </mxCell>
        <mxCell id="S7SiLh0995_sBBa2Cg7T-73" value="" style="endArrow=none;html=1;rounded=0;exitX=0.5;exitY=0;exitDx=0;exitDy=0;entryX=0.5;entryY=1;entryDx=0;entryDy=0;" edge="1" parent="1" source="S7SiLh0995_sBBa2Cg7T-97" target="S7SiLh0995_sBBa2Cg7T-3">
          <mxGeometry relative="1" as="geometry">
            <mxPoint x="710" y="410" as="sourcePoint" />
            <mxPoint x="410" y="410" as="targetPoint" />
          </mxGeometry>
        </mxCell>
        <mxCell id="S7SiLh0995_sBBa2Cg7T-74" value="" style="resizable=0;html=1;whiteSpace=wrap;align=left;verticalAlign=bottom;" connectable="0" vertex="1" parent="S7SiLh0995_sBBa2Cg7T-73">
          <mxGeometry x="-1" relative="1" as="geometry" />
        </mxCell>
        <mxCell id="S7SiLh0995_sBBa2Cg7T-75" value="" style="resizable=0;html=1;whiteSpace=wrap;align=right;verticalAlign=bottom;" connectable="0" vertex="1" parent="S7SiLh0995_sBBa2Cg7T-73">
          <mxGeometry x="1" relative="1" as="geometry" />
        </mxCell>
        <mxCell id="S7SiLh0995_sBBa2Cg7T-76" value="" style="endArrow=none;html=1;rounded=0;exitX=0.5;exitY=1;exitDx=0;exitDy=0;entryX=0.43;entryY=-0.05;entryDx=0;entryDy=0;entryPerimeter=0;" edge="1" parent="1" source="S7SiLh0995_sBBa2Cg7T-3" target="S7SiLh0995_sBBa2Cg7T-100">
          <mxGeometry relative="1" as="geometry">
            <mxPoint x="720" y="420" as="sourcePoint" />
            <mxPoint x="880" y="420" as="targetPoint" />
          </mxGeometry>
        </mxCell>
        <mxCell id="S7SiLh0995_sBBa2Cg7T-77" value="" style="resizable=0;html=1;whiteSpace=wrap;align=left;verticalAlign=bottom;" connectable="0" vertex="1" parent="S7SiLh0995_sBBa2Cg7T-76">
          <mxGeometry x="-1" relative="1" as="geometry" />
        </mxCell>
        <mxCell id="S7SiLh0995_sBBa2Cg7T-78" value="" style="resizable=0;html=1;whiteSpace=wrap;align=right;verticalAlign=bottom;" connectable="0" vertex="1" parent="S7SiLh0995_sBBa2Cg7T-76">
          <mxGeometry x="1" relative="1" as="geometry" />
        </mxCell>
        <mxCell id="S7SiLh0995_sBBa2Cg7T-79" value="" style="endArrow=none;html=1;rounded=0;" edge="1" parent="1">
          <mxGeometry relative="1" as="geometry">
            <mxPoint x="730" y="430" as="sourcePoint" />
            <mxPoint x="890" y="430" as="targetPoint" />
          </mxGeometry>
        </mxCell>
        <mxCell id="S7SiLh0995_sBBa2Cg7T-80" value="" style="resizable=0;html=1;whiteSpace=wrap;align=left;verticalAlign=bottom;" connectable="0" vertex="1" parent="S7SiLh0995_sBBa2Cg7T-79">
          <mxGeometry x="-1" relative="1" as="geometry" />
        </mxCell>
        <mxCell id="S7SiLh0995_sBBa2Cg7T-81" value="" style="resizable=0;html=1;whiteSpace=wrap;align=right;verticalAlign=bottom;" connectable="0" vertex="1" parent="S7SiLh0995_sBBa2Cg7T-79">
          <mxGeometry x="1" relative="1" as="geometry" />
        </mxCell>
        <mxCell id="S7SiLh0995_sBBa2Cg7T-82" value="" style="endArrow=none;html=1;rounded=0;" edge="1" parent="1">
          <mxGeometry relative="1" as="geometry">
            <mxPoint x="740" y="440" as="sourcePoint" />
            <mxPoint x="900" y="440" as="targetPoint" />
          </mxGeometry>
        </mxCell>
        <mxCell id="S7SiLh0995_sBBa2Cg7T-83" value="" style="resizable=0;html=1;whiteSpace=wrap;align=left;verticalAlign=bottom;" connectable="0" vertex="1" parent="S7SiLh0995_sBBa2Cg7T-82">
          <mxGeometry x="-1" relative="1" as="geometry" />
        </mxCell>
        <mxCell id="S7SiLh0995_sBBa2Cg7T-84" value="" style="resizable=0;html=1;whiteSpace=wrap;align=right;verticalAlign=bottom;" connectable="0" vertex="1" parent="S7SiLh0995_sBBa2Cg7T-82">
          <mxGeometry x="1" relative="1" as="geometry" />
        </mxCell>
        <mxCell id="S7SiLh0995_sBBa2Cg7T-85" value="" style="endArrow=none;html=1;rounded=0;" edge="1" parent="1">
          <mxGeometry relative="1" as="geometry">
            <mxPoint x="750" y="450" as="sourcePoint" />
            <mxPoint x="910" y="450" as="targetPoint" />
          </mxGeometry>
        </mxCell>
        <mxCell id="S7SiLh0995_sBBa2Cg7T-86" value="" style="resizable=0;html=1;whiteSpace=wrap;align=left;verticalAlign=bottom;" connectable="0" vertex="1" parent="S7SiLh0995_sBBa2Cg7T-85">
          <mxGeometry x="-1" relative="1" as="geometry" />
        </mxCell>
        <mxCell id="S7SiLh0995_sBBa2Cg7T-87" value="" style="resizable=0;html=1;whiteSpace=wrap;align=right;verticalAlign=bottom;" connectable="0" vertex="1" parent="S7SiLh0995_sBBa2Cg7T-85">
          <mxGeometry x="1" relative="1" as="geometry" />
        </mxCell>
        <mxCell id="S7SiLh0995_sBBa2Cg7T-88" value="" style="endArrow=none;html=1;rounded=0;" edge="1" parent="1">
          <mxGeometry relative="1" as="geometry">
            <mxPoint x="760" y="460" as="sourcePoint" />
            <mxPoint x="920" y="460" as="targetPoint" />
          </mxGeometry>
        </mxCell>
        <mxCell id="S7SiLh0995_sBBa2Cg7T-89" value="" style="resizable=0;html=1;whiteSpace=wrap;align=left;verticalAlign=bottom;" connectable="0" vertex="1" parent="S7SiLh0995_sBBa2Cg7T-88">
          <mxGeometry x="-1" relative="1" as="geometry" />
        </mxCell>
        <mxCell id="S7SiLh0995_sBBa2Cg7T-90" value="" style="resizable=0;html=1;whiteSpace=wrap;align=right;verticalAlign=bottom;" connectable="0" vertex="1" parent="S7SiLh0995_sBBa2Cg7T-88">
          <mxGeometry x="1" relative="1" as="geometry" />
        </mxCell>
        <mxCell id="S7SiLh0995_sBBa2Cg7T-91" value="" style="endArrow=none;html=1;rounded=0;" edge="1" parent="1">
          <mxGeometry relative="1" as="geometry">
            <mxPoint x="770" y="470" as="sourcePoint" />
            <mxPoint x="930" y="470" as="targetPoint" />
          </mxGeometry>
        </mxCell>
        <mxCell id="S7SiLh0995_sBBa2Cg7T-92" value="" style="resizable=0;html=1;whiteSpace=wrap;align=left;verticalAlign=bottom;" connectable="0" vertex="1" parent="S7SiLh0995_sBBa2Cg7T-91">
          <mxGeometry x="-1" relative="1" as="geometry" />
        </mxCell>
        <mxCell id="S7SiLh0995_sBBa2Cg7T-93" value="" style="resizable=0;html=1;whiteSpace=wrap;align=right;verticalAlign=bottom;" connectable="0" vertex="1" parent="S7SiLh0995_sBBa2Cg7T-91">
          <mxGeometry x="1" relative="1" as="geometry" />
        </mxCell>
        <mxCell id="S7SiLh0995_sBBa2Cg7T-94" value="" style="endArrow=none;html=1;rounded=0;" edge="1" parent="1">
          <mxGeometry relative="1" as="geometry">
            <mxPoint x="780" y="480" as="sourcePoint" />
            <mxPoint x="940" y="480" as="targetPoint" />
          </mxGeometry>
        </mxCell>
        <mxCell id="S7SiLh0995_sBBa2Cg7T-95" value="" style="resizable=0;html=1;whiteSpace=wrap;align=left;verticalAlign=bottom;" connectable="0" vertex="1" parent="S7SiLh0995_sBBa2Cg7T-94">
          <mxGeometry x="-1" relative="1" as="geometry" />
        </mxCell>
        <mxCell id="S7SiLh0995_sBBa2Cg7T-96" value="" style="resizable=0;html=1;whiteSpace=wrap;align=right;verticalAlign=bottom;" connectable="0" vertex="1" parent="S7SiLh0995_sBBa2Cg7T-94">
          <mxGeometry x="1" relative="1" as="geometry" />
        </mxCell>
        <mxCell id="S7SiLh0995_sBBa2Cg7T-97" value="phone_number" style="ellipse;whiteSpace=wrap;html=1;align=center;" vertex="1" parent="1">
          <mxGeometry x="340" y="430" width="100" height="40" as="geometry" />
        </mxCell>
        <mxCell id="S7SiLh0995_sBBa2Cg7T-98" value="sort_number" style="ellipse;whiteSpace=wrap;html=1;align=center;" vertex="1" parent="1">
          <mxGeometry x="540" y="560" width="100" height="40" as="geometry" />
        </mxCell>
        <mxCell id="S7SiLh0995_sBBa2Cg7T-99" value="sort_number" style="ellipse;whiteSpace=wrap;html=1;align=center;" vertex="1" parent="1">
          <mxGeometry x="550" y="570" width="100" height="40" as="geometry" />
        </mxCell>
        <mxCell id="S7SiLh0995_sBBa2Cg7T-100" value="login_name" style="ellipse;whiteSpace=wrap;html=1;align=center;" vertex="1" parent="1">
          <mxGeometry x="500" y="430" width="100" height="40" as="geometry" />
        </mxCell>
        <mxCell id="S7SiLh0995_sBBa2Cg7T-101" value="&lt;font style=&quot;font-size: 18px;&quot;&gt;&lt;b&gt;........&lt;/b&gt;&lt;/font&gt;" style="text;whiteSpace=wrap;html=1;" vertex="1" parent="1">
          <mxGeometry x="450" y="430" width="40" height="10" as="geometry" />
        </mxCell>
        <mxCell id="S7SiLh0995_sBBa2Cg7T-102" value="" style="endArrow=none;html=1;rounded=0;exitX=0.6;exitY=-0.05;exitDx=0;exitDy=0;exitPerimeter=0;entryX=0.5;entryY=1;entryDx=0;entryDy=0;" edge="1" parent="1" source="S7SiLh0995_sBBa2Cg7T-72" target="S7SiLh0995_sBBa2Cg7T-3">
          <mxGeometry relative="1" as="geometry">
            <mxPoint x="290" y="428" as="sourcePoint" />
            <mxPoint x="400" y="400" as="targetPoint" />
          </mxGeometry>
        </mxCell>
        <mxCell id="S7SiLh0995_sBBa2Cg7T-103" value="" style="resizable=0;html=1;whiteSpace=wrap;align=left;verticalAlign=bottom;" connectable="0" vertex="1" parent="S7SiLh0995_sBBa2Cg7T-102">
          <mxGeometry x="-1" relative="1" as="geometry" />
        </mxCell>
        <mxCell id="S7SiLh0995_sBBa2Cg7T-3" value="User" style="rounded=1;arcSize=10;whiteSpace=wrap;html=1;align=center;" vertex="1" parent="1">
          <mxGeometry x="370" y="360" width="100" height="40" as="geometry" />
        </mxCell>
        <mxCell id="S7SiLh0995_sBBa2Cg7T-105" value="" style="resizable=0;html=1;whiteSpace=wrap;align=right;verticalAlign=bottom;" connectable="0" vertex="1" parent="1">
          <mxGeometry x="199.7756139266071" y="320" as="geometry" />
        </mxCell>
        <mxCell id="S7SiLh0995_sBBa2Cg7T-106" value="id&lt;br&gt;" style="ellipse;whiteSpace=wrap;html=1;align=center;fontStyle=4;" vertex="1" parent="1">
          <mxGeometry x="20" y="169.9958594972498" width="100" height="40" as="geometry" />
        </mxCell>
        <mxCell id="S7SiLh0995_sBBa2Cg7T-107" value="" style="endArrow=none;html=1;rounded=0;exitX=0.5;exitY=0;exitDx=0;exitDy=0;" edge="1" parent="1" source="S7SiLh0995_sBBa2Cg7T-113">
          <mxGeometry relative="1" as="geometry">
            <mxPoint x="510" y="329.6858594972498" as="sourcePoint" />
            <mxPoint x="60" y="260" as="targetPoint" />
          </mxGeometry>
        </mxCell>
        <mxCell id="S7SiLh0995_sBBa2Cg7T-108" value="" style="resizable=0;html=1;whiteSpace=wrap;align=left;verticalAlign=bottom;" connectable="0" vertex="1" parent="S7SiLh0995_sBBa2Cg7T-107">
          <mxGeometry x="-1" relative="1" as="geometry" />
        </mxCell>
        <mxCell id="S7SiLh0995_sBBa2Cg7T-109" value="" style="resizable=0;html=1;whiteSpace=wrap;align=right;verticalAlign=bottom;" connectable="0" vertex="1" parent="S7SiLh0995_sBBa2Cg7T-107">
          <mxGeometry x="1" relative="1" as="geometry" />
        </mxCell>
        <mxCell id="S7SiLh0995_sBBa2Cg7T-110" value="" style="endArrow=none;html=1;rounded=0;entryX=0.43;entryY=-0.05;entryDx=0;entryDy=0;entryPerimeter=0;" edge="1" parent="1" target="S7SiLh0995_sBBa2Cg7T-114">
          <mxGeometry relative="1" as="geometry">
            <mxPoint x="60" y="260" as="sourcePoint" />
            <mxPoint x="680" y="339.6858594972498" as="targetPoint" />
          </mxGeometry>
        </mxCell>
        <mxCell id="S7SiLh0995_sBBa2Cg7T-111" value="" style="resizable=0;html=1;whiteSpace=wrap;align=left;verticalAlign=bottom;" connectable="0" vertex="1" parent="S7SiLh0995_sBBa2Cg7T-110">
          <mxGeometry x="-1" relative="1" as="geometry" />
        </mxCell>
        <mxCell id="S7SiLh0995_sBBa2Cg7T-112" value="" style="resizable=0;html=1;whiteSpace=wrap;align=right;verticalAlign=bottom;" connectable="0" vertex="1" parent="S7SiLh0995_sBBa2Cg7T-110">
          <mxGeometry x="1" relative="1" as="geometry" />
        </mxCell>
        <mxCell id="S7SiLh0995_sBBa2Cg7T-113" value="name" style="ellipse;whiteSpace=wrap;html=1;align=center;" vertex="1" parent="1">
          <mxGeometry x="-60" y="269.9958594972498" width="100" height="40" as="geometry" />
        </mxCell>
        <mxCell id="S7SiLh0995_sBBa2Cg7T-114" value="introducution" style="ellipse;whiteSpace=wrap;html=1;align=center;" vertex="1" parent="1">
          <mxGeometry x="110" y="269.9958594972498" width="100" height="40" as="geometry" />
        </mxCell>
        <mxCell id="S7SiLh0995_sBBa2Cg7T-115" value="&lt;font style=&quot;font-size: 18px;&quot;&gt;&lt;b&gt;........&lt;/b&gt;&lt;/font&gt;" style="text;whiteSpace=wrap;html=1;" vertex="1" parent="1">
          <mxGeometry x="50" y="269.9958594972498" width="40" height="10" as="geometry" />
        </mxCell>
        <mxCell id="S7SiLh0995_sBBa2Cg7T-116" value="" style="endArrow=none;html=1;rounded=0;exitX=0.5;exitY=1;exitDx=0;exitDy=0;entryX=0.5;entryY=0;entryDx=0;entryDy=0;" edge="1" parent="1" source="S7SiLh0995_sBBa2Cg7T-106" target="S7SiLh0995_sBBa2Cg7T-6">
          <mxGeometry relative="1" as="geometry">
            <mxPoint x="90" y="347.6858594972498" as="sourcePoint" />
            <mxPoint x="60" y="260" as="targetPoint" />
          </mxGeometry>
        </mxCell>
        <mxCell id="S7SiLh0995_sBBa2Cg7T-117" value="" style="resizable=0;html=1;whiteSpace=wrap;align=left;verticalAlign=bottom;" connectable="0" vertex="1" parent="S7SiLh0995_sBBa2Cg7T-116">
          <mxGeometry x="-1" relative="1" as="geometry" />
        </mxCell>
        <mxCell id="S7SiLh0995_sBBa2Cg7T-118" style="edgeStyle=orthogonalEdgeStyle;rounded=0;orthogonalLoop=1;jettySize=auto;html=1;exitX=0.75;exitY=1;exitDx=0;exitDy=0;entryX=0.75;entryY=0;entryDx=0;entryDy=0;" edge="1" parent="1" source="S7SiLh0995_sBBa2Cg7T-115" target="S7SiLh0995_sBBa2Cg7T-115">
          <mxGeometry relative="1" as="geometry" />
        </mxCell>
        <mxCell id="S7SiLh0995_sBBa2Cg7T-119" value="" style="resizable=0;html=1;whiteSpace=wrap;align=right;verticalAlign=bottom;" connectable="0" vertex="1" parent="1">
          <mxGeometry x="469.7756139266071" y="40.31" as="geometry" />
        </mxCell>
        <mxCell id="S7SiLh0995_sBBa2Cg7T-120" value="id&lt;br&gt;" style="ellipse;whiteSpace=wrap;html=1;align=center;fontStyle=4;" vertex="1" parent="1">
          <mxGeometry x="280" y="99.9958594972498" width="100" height="40" as="geometry" />
        </mxCell>
        <mxCell id="S7SiLh0995_sBBa2Cg7T-121" value="" style="endArrow=none;html=1;rounded=0;exitX=0.5;exitY=0;exitDx=0;exitDy=0;" edge="1" parent="1" source="S7SiLh0995_sBBa2Cg7T-127">
          <mxGeometry relative="1" as="geometry">
            <mxPoint x="780" y="49.995859497249796" as="sourcePoint" />
            <mxPoint x="410" y="200" as="targetPoint" />
          </mxGeometry>
        </mxCell>
        <mxCell id="S7SiLh0995_sBBa2Cg7T-122" value="" style="resizable=0;html=1;whiteSpace=wrap;align=left;verticalAlign=bottom;" connectable="0" vertex="1" parent="S7SiLh0995_sBBa2Cg7T-121">
          <mxGeometry x="-1" relative="1" as="geometry" />
        </mxCell>
        <mxCell id="S7SiLh0995_sBBa2Cg7T-123" value="" style="resizable=0;html=1;whiteSpace=wrap;align=right;verticalAlign=bottom;" connectable="0" vertex="1" parent="S7SiLh0995_sBBa2Cg7T-121">
          <mxGeometry x="1" relative="1" as="geometry" />
        </mxCell>
        <mxCell id="S7SiLh0995_sBBa2Cg7T-124" value="" style="endArrow=none;html=1;rounded=0;exitX=0.5;exitY=0;exitDx=0;exitDy=0;entryX=0.5;entryY=1;entryDx=0;entryDy=0;" edge="1" parent="1" target="S7SiLh0995_sBBa2Cg7T-128" source="S7SiLh0995_sBBa2Cg7T-5">
          <mxGeometry relative="1" as="geometry">
            <mxPoint x="490" y="39.995859497249796" as="sourcePoint" />
            <mxPoint x="950" y="59.995859497249796" as="targetPoint" />
          </mxGeometry>
        </mxCell>
        <mxCell id="S7SiLh0995_sBBa2Cg7T-125" value="" style="resizable=0;html=1;whiteSpace=wrap;align=left;verticalAlign=bottom;" connectable="0" vertex="1" parent="S7SiLh0995_sBBa2Cg7T-124">
          <mxGeometry x="-1" relative="1" as="geometry" />
        </mxCell>
        <mxCell id="S7SiLh0995_sBBa2Cg7T-126" value="" style="resizable=0;html=1;whiteSpace=wrap;align=right;verticalAlign=bottom;" connectable="0" vertex="1" parent="S7SiLh0995_sBBa2Cg7T-124">
          <mxGeometry x="1" relative="1" as="geometry" />
        </mxCell>
        <mxCell id="S7SiLh0995_sBBa2Cg7T-127" value="author_id" style="ellipse;whiteSpace=wrap;html=1;align=center;" vertex="1" parent="1">
          <mxGeometry x="390" y="95" width="100" height="50" as="geometry" />
        </mxCell>
        <mxCell id="S7SiLh0995_sBBa2Cg7T-128" value="book_id" style="ellipse;whiteSpace=wrap;html=1;align=center;" vertex="1" parent="1">
          <mxGeometry x="580" y="99.9958594972498" width="100" height="40" as="geometry" />
        </mxCell>
        <mxCell id="S7SiLh0995_sBBa2Cg7T-129" value="&lt;font style=&quot;font-size: 18px;&quot;&gt;&lt;b&gt;........&lt;/b&gt;&lt;/font&gt;" style="text;whiteSpace=wrap;html=1;" vertex="1" parent="1">
          <mxGeometry x="510" y="99.9958594972498" width="40" height="10" as="geometry" />
        </mxCell>
        <mxCell id="S7SiLh0995_sBBa2Cg7T-130" value="" style="endArrow=none;html=1;rounded=0;exitX=0.5;exitY=1;exitDx=0;exitDy=0;entryX=0.44;entryY=0.025;entryDx=0;entryDy=0;entryPerimeter=0;" edge="1" parent="1" source="S7SiLh0995_sBBa2Cg7T-120" target="S7SiLh0995_sBBa2Cg7T-5">
          <mxGeometry relative="1" as="geometry">
            <mxPoint x="360" y="67.9958594972498" as="sourcePoint" />
            <mxPoint x="319.7738200710696" y="150.31" as="targetPoint" />
          </mxGeometry>
        </mxCell>
        <mxCell id="S7SiLh0995_sBBa2Cg7T-131" value="" style="resizable=0;html=1;whiteSpace=wrap;align=left;verticalAlign=bottom;" connectable="0" vertex="1" parent="S7SiLh0995_sBBa2Cg7T-130">
          <mxGeometry x="-1" relative="1" as="geometry" />
        </mxCell>
      </root>
    </mxGraphModel>
  </diagram>
</mxfile>
